# xmcd
#
# Track frame offsets: 
#        150
#        21217
#        42180
#        63793
#        90939
#        117397
#        138441
#        164231
#        189664
#        210720
#        237287
#
# Disc length: 3670 seconds
#
# Revision: 2
# Processed by: cddbd v1.5.2PL0 Copyright (c) Steve Scherf et al.
# Submitted via: ExactAudioCopy v1.0b3
#
DISCID=960e540b
DTITLE=Studebaker John - Between Life and Death
DYEAR=2004
DGENRE=Blues
TTITLE0=Between Life and Death
TTITLE1=This Road
TTITLE2=I Deceive Myself
TTITLE3=When I Look Into Your Eyes
TTITLE4=Crazy For Your Love
TTITLE5=Hard Place and The Ground
TTITLE6=If I Had A Nickel
TTITLE7=I Don't Know
TTITLE8=Can't Forget About You
TTITLE9=That's Why I'm Living
TTITLE10=Cold Chills
EXTD=
EXTT0=
EXTT1=
EXTT2=
EXTT3=
EXTT4=
EXTT5=
EXTT6=
EXTT7=
EXTT8=
EXTT9=
EXTT10=
PLAYORDER=
